<svg viewBox="-18 0 434 434.476" xmlns="http://www.w3.org/2000/svg">
  <path
    d="m393.53125 72.082031h-293.632812v-22.089843h293.632812c2.761719 0 5 2.238281 5 5v12.089843c0 2.761719-2.238281 5-5 5zm0 0"
    fill="#f9bb32" />
  <path
    d="m393.3125 60.03125h-293.414062v12.050781h293.414062c2.882812 0 5.21875-2.246093 5.21875-5.019531v-12.050781c0 2.773437-2.335938 5.019531-5.21875 5.019531zm0 0"
    fill="#ffa730" />
  <path
    d="m162.019531 43.484375c0-24.015625-22.40625-43.484375-50.050781-43.484375-27.640625 0-50.050781 19.46875-50.050781 43.484375 0 24.011719 22.410156 43.480469 50.050781 43.480469 27.644531 0 50.050781-19.46875 50.050781-43.480469zm0 0"
    fill="#bf6c0d" />
  <path
    d="m96.449219 43.484375c0-18.746094 13.652343-34.71875 32.785156-40.828125-5.382813-1.71875-11.195313-2.65625-17.265625-2.65625-27.640625 0-50.050781 19.46875-50.050781 43.484375s22.410156 43.480469 50.050781 43.480469c6.066406 0 11.882812-.9375 17.265625-2.65625-19.132813-6.109375-32.785156-22.082032-32.785156-40.824219zm0 0"
    fill="#a56021" />
  <path
    d="m393.53125 34.933594h-345.074219c-2.761719 0-5-2.238282-5-5v-12.089844c0-2.757812 2.238281-5 5-5h345.074219c2.761719 0 5 2.242188 5 5v12.089844c0 2.761718-2.238281 5-5 5zm0 0"
    fill="#f9bb32" />
  <path
    d="m59.109375 22.886719c-2.882813 0-5.21875-2.25-5.21875-5.023438v-5.019531h-5.214844c-2.882812 0-5.21875 2.25-5.21875 5.019531v12.050781c0 2.773438 2.335938 5.019532 5.21875 5.019532h344.636719c2.878906 0 5.214844-2.246094 5.214844-5.019532v-7.027343zm0 0"
    fill="#ffa730" />
  <path
    d="m212.660156 153.261719c-1.3125-1.058594-1.3125-2.777344 0-3.832031 4.140625-3.335938 6.714844-7.988282 6.714844-13.140626 0-9.394531-8.554688-17.136718-19.585938-18.222656-1.304687-.128906-2.382812-.878906-2.746093-1.917968-2.675781-7.664063-11.230469-13.269532-21.378907-13.269532-10.148437 0-18.703124 5.605469-21.378906 13.269532-.363281 1.039062-1.4375 1.789062-2.746094 1.917968-11.027343 1.089844-19.582031 8.828125-19.582031 18.222656 0 5.152344 2.574219 9.804688 6.714844 13.140626 1.3125 1.054687 1.3125 2.773437 0 3.832031-4.140625 3.332031-6.714844 7.984375-6.714844 13.136719 0 10.140624 9.964844 18.363281 22.253907 18.363281v8.03125h42.90625v-8.03125c12.292968 0 22.253906-8.222657 22.253906-18.363281.003906-5.152344-2.570313-9.804688-6.710938-13.136719zm0 0"
    fill="#ccc033" />
  <path
    d="m178.453125 136.8125c-.035156-.851562-1.171875-1.527344-2.5625-1.527344-1.382813 0-2.515625.671875-2.558594 1.519532l-2.683593 52.226562c-.007813.136719.015624.269531.0625.398438.253906 1.625 2.394531 2.894531 5 2.894531h.054687.0625c2.574219 0 4.683594-1.273438 4.910156-2.894531.042969-.128907.070313-.257813.0625-.394532zm0 0"
    fill="#fce575" />
  <path
    d="m147.996094 166.398438c0-5.152344 2.574218-9.804688 6.714844-13.136719 1.3125-1.058594 1.3125-2.777344 0-3.832031-4.140626-3.335938-6.714844-7.988282-6.714844-13.140626 0-9.394531 8.554687-17.136718 19.585937-18.222656 1.304688-.128906 2.378907-.878906 2.742188-1.917968 1.933593-5.53125 6.921875-9.988282 13.363281-12.042969-2.488281-.792969-5.191406-1.226563-8.019531-1.226563-10.148438 0-18.703125 5.605469-21.378907 13.269532-.363281 1.039062-1.441406 1.789062-2.746093 1.917968-11.03125 1.089844-19.582031 8.832032-19.582031 18.222656 0 5.152344 2.570312 9.804688 6.710937 13.140626 1.3125 1.054687 1.3125 2.773437 0 3.832031-4.140625 3.332031-6.710937 7.984375-6.710937 13.136719 0 10.140624 9.960937 18.363281 22.25 18.363281v8.03125h16.039062v-8.03125c-12.289062 0-22.253906-8.222657-22.253906-18.363281zm0 0"
    fill="#99af17" />
  <path
    d="m174.316406 189.429688c-.046875-.128907-.066406-.261719-.0625-.398438l2.683594-52.226562c.023438-.417969.308594-.792969.757812-1.066407-.464843-.28125-1.101562-.457031-1.804687-.457031-1.382813 0-2.515625.675781-2.558594 1.523438l-2.683593 52.226562c-.007813.136719.015624.269531.0625.398438.253906 1.625 2.394531 2.894531 5 2.894531.019531 0 .035156-.003907.054687-.003907s.042969.003907.0625.003907c.609375 0 1.195313-.074219 1.734375-.207031-1.757812-.417969-3.050781-1.449219-3.246094-2.6875zm0 0"
    fill="#fcda4f" />
  <path
    d="m295.699219 151.765625c0 24.011719-19.46875 43.480469-43.484375 43.480469s-43.484375-19.46875-43.484375-43.480469c0-24.015625 19.46875-43.484375 43.484375-43.484375s43.484375 19.46875 43.484375 43.484375zm0 0"
    fill="#db9c2e" />
  <path
    d="m238.730469 151.765625c0-18.746094 11.859375-34.71875 28.484375-40.828125-4.675782-1.71875-9.726563-2.65625-15-2.65625-24.015625 0-43.484375 19.46875-43.484375 43.484375s19.46875 43.480469 43.484375 43.480469c5.273437 0 10.324218-.9375 15-2.65625-16.625-6.109375-28.484375-22.082032-28.484375-40.824219zm0 0"
    fill="#bf6c0d" />
  <path
    d="m220.269531 206.574219h-61.667969c-6.601562 0-12-5.398438-12-12v-49.019531c0-6.597657 5.398438-12 12-12h61.667969c6.597657 0 12 5.402343 12 12v49.019531c0 6.601562-5.402343 12-12 12zm0 0"
    fill="#ffd551" />
  <path
    d="m172.914062 194.574219v-49.019531c0-6.601563 4.738282-12 10.527344-12h-26.316406c-5.789062 0-10.523438 5.398437-10.523438 12v49.019531c0 6.601562 4.734376 12 10.523438 12h26.316406c-5.789062 0-10.527344-5.398438-10.527344-12zm0 0"
    fill="#eacf32" />
  <path
    d="m266.9375 434.476562h-174.976562c-9.304688 0-17.015626-6.972656-17.628907-15.941406l-18.144531-265.121094h246.519531l-18.144531 265.121094c-.613281 8.96875-8.324219 15.941406-17.625 15.941406zm0 0"
    fill="#ff624b" />
  <path
    d="m235.5 233.066406h-112.101562c-6.457032 0-12.519532-3.117187-16.273438-8.371094l-50.933594-71.28125h246.515625l-50.9375 71.28125c-3.753906 5.253907-9.8125 8.371094-16.269531 8.371094zm0 0"
    fill="#fff4c1" />
  <path d="m56.1875 153.414062-53.558594 63.1875c-5.507812 6.496094-.890625 16.464844 7.628906 16.464844h51.382813zm0 0" fill="#ffd59a" />
  <path d="m302.707031 153.414062 53.558594 63.1875c5.507813 6.496094.890625 16.464844-7.625 16.464844h-51.382813zm0 0" fill="#ffd59a" />
  <path
    d="m243.78125 336.144531c0 34.238281-27.757812 62-62 62s-62-27.761719-62-62c0-34.242187 27.757812-62 62-62s62 27.757813 62 62zm0 0"
    fill="#fff4c1" />
  <path
    d="m114.332031 418.535156-18.144531-265.121094h-40l18.144531 265.121094c.613281 8.96875 8.324219 15.941406 17.628907 15.941406h40c-9.304688 0-17.015626-6.972656-17.628907-15.941406zm0 0"
    fill="#ff4b34" />
  <path
    d="m147.125 224.695312-50.933594-71.28125h-40l50.933594 71.28125c3.757812 5.253907 9.816406 8.371094 16.273438 8.371094h40c-6.457032 0-12.519532-3.117187-16.273438-8.371094zm0 0"
    fill="#ffd59a" />
  <path
    d="m139.566406 257.144531c0 7.242188-5.875 13.117188-13.121094 13.117188-7.242187 0-13.117187-5.875-13.117187-13.117188 0-7.246093 5.875-13.121093 13.117187-13.121093 7.246094 0 13.121094 5.875 13.121094 13.121093zm0 0"
    fill="#ff4b34" />
  <g fill="#ff9079">
    <path
      d="m268.453125 403.742188c-.125 0-.25-.003907-.375-.011719-3.308594-.203125-5.824219-3.050781-5.617187-6.355469l6.664062-108.382812c.203125-3.304688 3.066406-5.816407 6.355469-5.621094 3.308593.207031 5.824219 3.050781 5.621093 6.359375l-6.667968 108.378906c-.195313 3.183594-2.835938 5.632813-5.980469 5.632813zm0 0" />
    <path
      d="m275.722656 276.253906c-.097656 0-.199218 0-.300781-.007812-3.308594-.160156-5.859375-2.976563-5.695313-6.285156l.792969-16.105469c.160157-3.308594 2.984375-5.847657 6.285157-5.695313 3.3125.160156 5.863281 2.976563 5.699218 6.285156l-.792968 16.105469c-.15625 3.207031-2.808594 5.703125-5.988282 5.703125zm0 0" />
  </g>
</svg>
